<svg id="SvgjsSvg1062" width="288" height="288" xmlns="http://www.w3.org/2000/svg" version="1.1" xmlns:xlink="http://www.w3.org/1999/xlink" xmlns:svgjs="http://svgjs.com/svgjs"><defs id="SvgjsDefs1063"></defs><g id="SvgjsG1064"><svg xmlns="http://www.w3.org/2000/svg" viewBox="0 0 48 48" width="288" height="288"><path fill="#9659e2" d="M35 32H3c-1.1 0-2-.9-2-2V10c0-1.1.9-2 2-2h32c1.1 0 2 .9 2 2v20c0 1.1-.9 2-2 2z" class="color88a1ba svgShape"></path><path fill="#f7f7fb" d="M35 32H3c-1.1 0-2-.9-2-2v-4h36v4c0 1.1-.9 2-2 2z" class="colorf7f7fb svgShape"></path><path fill="#563975" d="M36 27H2a1 1 0 0 1 0-2h34a1 1 0 0 1 0 2z" class="color444a54 svgShape"></path><circle cx="19" cy="29" r="1" fill="#3a0f6b" class="color000 svgShape"></circle><path fill="#563975" d="M22 41h-6a1 1 0 0 1-1-1v-8a1 1 0 0 1 1-1h6a1 1 0 0 1 1 1v8a1 1 0 0 1-1 1zm-5-2h4v-6h-4v6z" class="color444a54 svgShape"></path><path fill="#d8e5ea" d="M16 32h6v8h-6z" class="colord8e5ea svgShape"></path><path fill="#563975" d="M23 41h-8V31h8v10zm-6-2h4v-6h-4v6z" class="color444a54 svgShape"></path><path fill="#563975" d="M28.5 41h-19a1 1 0 0 1 0-2h19a1 1 0 0 1 0 2zm6.5-8H3c-1.654 0-3-1.346-3-3V10c0-1.654 1.346-3 3-3h32c1.654 0 3 1.346 3 3v20c0 1.654-1.346 3-3 3zM3 9c-.551 0-1 .449-1 1v20c0 .551.449 1 1 1h32c.551 0 1-.449 1-1V10c0-.551-.449-1-1-1H3z" class="color444a54 svgShape"></path><path fill="#563975" d="M35 7H3c-1.654 0-3 1.346-3 3v20c0 1.654 1.346 3 3 3h12v6H9.5a1 1 0 0 0 0 2h19a1 1 0 0 0 0-2H23v-6h12c1.654 0 3-1.346 3-3V10c0-1.654-1.346-3-3-3zM2 10c0-.551.449-1 1-1h32c.551 0 1 .449 1 1v15H2V10zm19 29h-4v-6h4v6zm15-9c0 .551-.449 1-1 1H3c-.551 0-1-.449-1-1v-3h34v3z" class="color444a54 svgShape"></path><circle cx="19" cy="29" r="1" fill="#563975" class="color444a54 svgShape"></circle><path fill="#9659e2" d="M31 16a2 2 0 0 1 2-2h12a2 2 0 0 1 2 2v22a2 2 0 0 1-2 2H33a2 2 0 0 1-2-2V16z" class="color88a1ba svgShape"></path><path fill="#f7f7fb" d="M31 16a2 2 0 0 1 2-2h12a2 2 0 0 1 2 2v3H31v-3zm16 22a2 2 0 0 1-2 2H33a2 2 0 0 1-2-2v-3h16v3z" class="colorf7f7fb svgShape"></path><path fill="#563975" d="M45 41H33c-1.654 0-3-1.346-3-3v-2a1 1 0 0 1 2 0v2c0 .551.449 1 1 1h12c.551 0 1-.449 1-1V16c0-.551-.449-1-1-1H33c-.551 0-1 .449-1 1a1 1 0 0 1-2 0c0-1.654 1.346-3 3-3h12c1.654 0 3 1.346 3 3v22c0 1.654-1.346 3-3 3z" class="color444a54 svgShape"></path><circle cx="39" cy="37" r="1" fill="#563975" class="color444a54 svgShape"></circle><path fill="#563975" d="M45 13H33c-1.654 0-3 1.346-3 3v22c0 1.654 1.346 3 3 3h12c1.654 0 3-1.346 3-3V16c0-1.654-1.346-3-3-3zm1 25c0 .551-.449 1-1 1H33c-.551 0-1-.449-1-1V16c0-.551.449-1 1-1h12c.551 0 1 .449 1 1v22z" class="color444a54 svgShape"></path><path fill="#563975" d="m38.874 20.293-1.666-1.666a1.001 1.001 0 0 0-1.414 0l-1.666 1.666a.995.995 0 0 0 1.374 1.441v2.6a.667.667 0 0 1-.667.667h-9.167a1 1 0 0 0 0 2h9.167a2.67 2.67 0 0 0 2.667-2.667v-2.6a.987.987 0 0 0 .665.266 1 1 0 0 0 .707-1.707zm-14.59 1.296a.991.991 0 0 0 1.089-.216l1.667-1.666a.995.995 0 0 0-1.374-1.441v-2.6c0-.368.299-.667.667-.667H35.5a1 1 0 0 0 0-2h-9.167a2.67 2.67 0 0 0-2.667 2.667v2.6a.995.995 0 0 0-1.374 1.441l1.666 1.666a.993.993 0 0 0 .326.216z" class="color444a54 svgShape"></path></svg></g></svg>